{
    "asset" : {
        "generator" : "Khronos glTF Blender I/O v1.5.17",
        "version" : "2.0"
    },
    "scene" : 0,
    "scenes" : [
        {
            "name" : "Scene",
            "nodes" : [
                0
            ]
        }
    ],
    "nodes" : [
        {
            "mesh" : 0,
            "name" : "alcantarilla",
            "rotation" : [
                0.7071068286895752,
                0,
                0,
                0.7071067094802856
            ],
            "scale" : [
                5.085928916931152,
                5.085928916931152,
                5.085928916931152
            ]
        }
    ],
    "materials" : [
        {
            "doubleSided" : true,
            "name" : "FrontColor",
            "pbrMetallicRoughness" : {
                "metallicFactor" : 0
            }
        },
        {
            "doubleSided" : true,
            "name" : "_1",
            "pbrMetallicRoughness" : {
                "baseColorTexture" : {
                    "index" : 0
                },
                "metallicFactor" : 0
            }
        },
        {
            "doubleSided" : true,
            "name" : "_2",
            "pbrMetallicRoughness" : {
                "baseColorTexture" : {
                    "index" : 1
                },
                "metallicFactor" : 0
            }
        }
    ],
    "meshes" : [
        {
            "name" : "alcantarilla",
            "primitives" : [
                {
                    "attributes" : {
                        "POSITION" : 0,
                        "NORMAL" : 1,
                        "TEXCOORD_0" : 2
                    },
                    "indices" : 3,
                    "material" : 0
                },
                {
                    "attributes" : {
                        "POSITION" : 4,
                        "NORMAL" : 5,
                        "TEXCOORD_0" : 6
                    },
                    "indices" : 7,
                    "material" : 1
                },
                {
                    "attributes" : {
                        "POSITION" : 8,
                        "NORMAL" : 9,
                        "TEXCOORD_0" : 10
                    },
                    "indices" : 11,
                    "material" : 2
                }
            ]
        }
    ],
    "textures" : [
        {
            "sampler" : 0,
            "source" : 0
        },
        {
            "sampler" : 0,
            "source" : 1
        }
    ],
    "images" : [
        {
            "bufferView" : 8,
            "mimeType" : "image/jpeg",
            "name" : "_1"
        },
        {
            "bufferView" : 13,
            "mimeType" : "image/jpeg",
            "name" : "_2"
        }
    ],
    "accessors" : [
        {
            "bufferView" : 0,
            "componentType" : 5126,
            "count" : 2308,
            "max" : [
                0.6184710264205933,
                -0.04054950177669525,
                0.029999999329447746
            ],
            "min" : [
                1.0574900289643295e-18,
                -0.3715499937534332,
                4.5119499571435854e-17
            ],
            "type" : "VEC3"
        },
        {
            "bufferView" : 1,
            "componentType" : 5126,
            "count" : 2308,
            "type" : "VEC3"
        },
        {
            "bufferView" : 2,
            "componentType" : 5126,
            "count" : 2308,
            "type" : "VEC2"
        },
        {
            "bufferView" : 3,
            "componentType" : 5123,
            "count" : 4104,
            "type" : "SCALAR"
        },
        {
            "bufferView" : 4,
            "componentType" : 5126,
            "count" : 608,
            "max" : [
                0.6200000047683716,
                0,
                0.009999999776482582
            ],
            "min" : [
                1.0574900289643295e-18,
                -0.4099999964237213,
                0
            ],
            "type" : "VEC3"
        },
        {
            "bufferView" : 5,
            "componentType" : 5126,
            "count" : 608,
            "type" : "VEC3"
        },
        {
            "bufferView" : 6,
            "componentType" : 5126,
            "count" : 608,
            "type" : "VEC2"
        },
        {
            "bufferView" : 7,
            "componentType" : 5123,
            "count" : 1620,
            "type" : "SCALAR"
        },
        {
            "bufferView" : 9,
            "componentType" : 5126,
            "count" : 12,
            "max" : [
                0.9142299890518188,
                0.37862899899482727,
                4.5119499571435854e-17
            ],
            "min" : [
                -0.3467699885368347,
                -0.7823709845542908,
                0
            ],
            "type" : "VEC3"
        },
        {
            "bufferView" : 10,
            "componentType" : 5126,
            "count" : 12,
            "type" : "VEC3"
        },
        {
            "bufferView" : 11,
            "componentType" : 5126,
            "count" : 12,
            "type" : "VEC2"
        },
        {
            "bufferView" : 12,
            "componentType" : 5123,
            "count" : 30,
            "type" : "SCALAR"
        }
    ],
    "bufferViews" : [
        {
            "buffer" : 0,
            "byteLength" : 27696,
            "byteOffset" : 0
        },
        {
            "buffer" : 0,
            "byteLength" : 27696,
            "byteOffset" : 27696
        },
        {
            "buffer" : 0,
            "byteLength" : 18464,
            "byteOffset" : 55392
        },
        {
            "buffer" : 0,
            "byteLength" : 8208,
            "byteOffset" : 73856
        },
        {
            "buffer" : 0,
            "byteLength" : 7296,
            "byteOffset" : 82064
        },
        {
            "buffer" : 0,
            "byteLength" : 7296,
            "byteOffset" : 89360
        },
        {
            "buffer" : 0,
            "byteLength" : 4864,
            "byteOffset" : 96656
        },
        {
            "buffer" : 0,
            "byteLength" : 3240,
            "byteOffset" : 101520
        },
        {
            "buffer" : 0,
            "byteLength" : 18227,
            "byteOffset" : 104760
        },
        {
            "buffer" : 0,
            "byteLength" : 144,
            "byteOffset" : 122988
        },
        {
            "buffer" : 0,
            "byteLength" : 144,
            "byteOffset" : 123132
        },
        {
            "buffer" : 0,
            "byteLength" : 96,
            "byteOffset" : 123276
        },
        {
            "buffer" : 0,
            "byteLength" : 60,
            "byteOffset" : 123372
        },
        {
            "buffer" : 0,
            "byteLength" : 1137602,
            "byteOffset" : 123432
        }
    ],
    "samplers" : [
        {
            "magFilter" : 9729,
            "minFilter" : 9987
        }
    ],
    "buffers" : [
        {
            "byteLength" : 1261036,
            "uri" : "data:application/octet-stream;base64,"
        }
    ]
}
